# xmcd
#
# Track frame offsets: 
#        150
#        13844
#        32240
#        47116
#        57515
#        75990
#        95717
#        110264
#        123878
#        139345
#        155261
#
# Disc length: 2387 seconds
#
# Revision: 0
# Processed by: cddbd v1.5.2PL0 Copyright (c) Steve Scherf et al.
# Submitted via: ExactAudioCopy v1.3
#
DISCID=8d09510b
DTITLE=The Milk Men - Gold Top
DYEAR=2018
DGENRE=Electric Blues, Blues Rock
TTITLE0=Shoot The Lights
TTITLE1=Rag 'N' Bone Lady
TTITLE2=This Is The Last Time
TTITLE3=The Operator
TTITLE4=Give Me A Reason
TTITLE5=Tambourine
TTITLE6=Taking Control
TTITLE7=Give Me Back My Wig
TTITLE8=Trouble
TTITLE9=Gimme Some Blues
TTITLE10=Hard Woman To Love
EXTD=
EXTT0=
EXTT1=
EXTT2=
EXTT3=
EXTT4=
EXTT5=
EXTT6=
EXTT7=
EXTT8=
EXTT9=
EXTT10=
PLAYORDER=
